<svg id="visual" viewBox="0 0 900 600" width="900" height="600" xmlns="http://www.w3.org/2000/svg" xmlns:xlink="http://www.w3.org/1999/xlink" version="1.1"><rect x="0" y="0" width="900" height="600" fill="#001220"></rect><path d="M0 426L21.5 427.7C43 429.3 86 432.7 128.8 435.7C171.7 438.7 214.3 441.3 257.2 441C300 440.7 343 437.3 385.8 421.7C428.7 406 471.3 378 514.2 369.5C557 361 600 372 642.8 382.5C685.7 393 728.3 403 771.2 403.8C814 404.7 857 396.3 878.5 392.2L900 388L900 601L878.5 601C857 601 814 601 771.2 601C728.3 601 685.7 601 642.8 601C600 601 557 601 514.2 601C471.3 601 428.7 601 385.8 601C343 601 300 601 257.2 601C214.3 601 171.7 601 128.8 601C86 601 43 601 21.5 601L0 601Z" fill="#fa7268"></path><path d="M0 396L21.5 405C43 414 86 432 128.8 438.5C171.7 445 214.3 440 257.2 444.5C300 449 343 463 385.8 469.8C428.7 476.7 471.3 476.3 514.2 464.5C557 452.7 600 429.3 642.8 418.7C685.7 408 728.3 410 771.2 419.2C814 428.3 857 444.7 878.5 452.8L900 461L900 601L878.5 601C857 601 814 601 771.2 601C728.3 601 685.7 601 642.8 601C600 601 557 601 514.2 601C471.3 601 428.7 601 385.8 601C343 601 300 601 257.2 601C214.3 601 171.7 601 128.8 601C86 601 43 601 21.5 601L0 601Z" fill="#ef5f67"></path><path d="M0 439L21.5 445.8C43 452.7 86 466.3 128.8 474.5C171.7 482.7 214.3 485.3 257.2 490.5C300 495.7 343 503.3 385.8 497.8C428.7 492.3 471.3 473.7 514.2 466.5C557 459.3 600 463.7 642.8 471.2C685.7 478.7 728.3 489.3 771.2 487.7C814 486 857 472 878.5 465L900 458L900 601L878.5 601C857 601 814 601 771.2 601C728.3 601 685.7 601 642.8 601C600 601 557 601 514.2 601C471.3 601 428.7 601 385.8 601C343 601 300 601 257.2 601C214.3 601 171.7 601 128.8 601C86 601 43 601 21.5 601L0 601Z" fill="#e34c67"></path><path d="M0 502L21.5 507C43 512 86 522 128.8 518.8C171.7 515.7 214.3 499.3 257.2 497.2C300 495 343 507 385.8 513.2C428.7 519.3 471.3 519.7 514.2 513.8C557 508 600 496 642.8 492.2C685.7 488.3 728.3 492.7 771.2 500.8C814 509 857 521 878.5 527L900 533L900 601L878.5 601C857 601 814 601 771.2 601C728.3 601 685.7 601 642.8 601C600 601 557 601 514.2 601C471.3 601 428.7 601 385.8 601C343 601 300 601 257.2 601C214.3 601 171.7 601 128.8 601C86 601 43 601 21.5 601L0 601Z" fill="#d53867"></path><path d="M0 561L21.5 559.7C43 558.3 86 555.7 128.8 552.2C171.7 548.7 214.3 544.3 257.2 547.8C300 551.3 343 562.7 385.8 560.3C428.7 558 471.3 542 514.2 541C557 540 600 554 642.8 556.5C685.7 559 728.3 550 771.2 542.7C814 535.3 857 529.7 878.5 526.8L900 524L900 601L878.5 601C857 601 814 601 771.2 601C728.3 601 685.7 601 642.8 601C600 601 557 601 514.2 601C471.3 601 428.7 601 385.8 601C343 601 300 601 257.2 601C214.3 601 171.7 601 128.8 601C86 601 43 601 21.5 601L0 601Z" fill="#c62368"></path></svg>